<?xml version="1.0" encoding="UTF-8" standalone="no"?>
<!-- Created with Inkscape (http://www.inkscape.org/) -->

<svg
   width="1200"
   height="1200"
   viewBox="0 0 1200 1200"
   version="1.1"
   id="svg5"
   inkscape:version="1.3.2 (091e20ef0f, 2023-11-25)"
   sodipodi:docname="inkscape-icon_1200x1200.svg"
   xml:space="preserve"
   xmlns:inkscape="http://www.inkscape.org/namespaces/inkscape"
   xmlns:sodipodi="http://sodipodi.sourceforge.net/DTD/sodipodi-0.dtd"
   xmlns:xlink="http://www.w3.org/1999/xlink"
   xmlns="http://www.w3.org/2000/svg"
   xmlns:svg="http://www.w3.org/2000/svg"><sodipodi:namedview
     id="namedview7"
     pagecolor="#ffffff"
     bordercolor="#666666"
     borderopacity="1.0"
     inkscape:pageshadow="2"
     inkscape:pageopacity="0.0"
     inkscape:pagecheckerboard="true"
     inkscape:document-units="px"
     showgrid="false"
     units="px"
     width="1200px"
     inkscape:zoom="0.37371282"
     inkscape:cx="275.6127"
     inkscape:cy="655.58361"
     inkscape:window-width="1920"
     inkscape:window-height="971"
     inkscape:window-x="0"
     inkscape:window-y="40"
     inkscape:window-maximized="1"
     inkscape:current-layer="svg5"
     inkscape:showpageshadow="0"
     inkscape:deskcolor="#505050" /><defs
     id="defs2"><linearGradient
       id="linearGradient118"
       inkscape:collect="always"><stop
         style="stop-color:#69ceff;stop-opacity:1;"
         offset="0"
         id="stop118" /><stop
         style="stop-color:#0100b7;stop-opacity:1;"
         offset="1"
         id="stop119" /></linearGradient><linearGradient
       inkscape:collect="always"
       xlink:href="#linearGradient118"
       id="linearGradient119"
       x1="567.62317"
       y1="79.443375"
       x2="567.62317"
       y2="1028.0262"
       gradientUnits="userSpaceOnUse"
       gradientTransform="matrix(0.86452531,0,0,0.86452531,112.38746,49.49522)" /></defs><g
     id="foreground"
     transform="matrix(6,0,0,6,-150,-180)"
     inkscape:label="foreground">
	<polygon
   class="st0"
   points="125,230 125,230 125,230 203.9,186.3 218.1,63.2 125,30 31.9,63.2 46.1,186.3 "
   id="polygon1"
   style="fill:#80ffe6" />
	<polygon
   class="st1"
   points="125,230 125,230 203.9,186.3 218.1,63.2 125,30 125,52.2 125,52.1 125,153.4 "
   id="polygon2"
   style="fill:#aaeeff" /><path
   id="logo"
   style="color:#000000;-inkscape-font-specification:Nemoy;fill:url(#linearGradient119);stroke-width:0.864525;stroke-linecap:square;stroke-linejoin:round;-inkscape-stroke:none"
   d="m 600,129.54993 c -11.25598,0 -22.58049,6.70527 -29.38375,19.69327 a 1.7246108,1.7246108 0 0 0 -0.007,0.0119 l -383.71246,748.35807 0.31576,-0.43224 c -0.80599,0.80596 -0.96087,1.62085 -1.15664,2.53448 -0.19578,0.91364 -0.30886,1.94164 -0.38667,3.0309 -0.15561,2.17849 -0.15366,4.59178 -0.15366,6.37921 0,15.16202 11.50876,26.74968 25.55753,26.74968 10.24351,0 19.09424,-6.28517 22.98253,-14.04346 l 0.0101,-0.0186 147.6177,-286.97174 194.99266,287.16925 -0.0524,-0.0809 c 5.63787,9.39655 14.56711,14.24275 23.52454,14.24275 8.95743,0 17.88667,-4.8462 23.52455,-14.24275 l -0.0508,0.0773 194.98758,-288.34617 147.621,288.15205 c 3.8835,7.76685 12.8195,14.06197 24.18313,14.06197 14.0488,0 26.7496,-11.49173 26.7496,-26.74962 0,-4.31499 -2.574,-9.1214 -6.1497,-15.08694 l -382.49659,-744.73787 -0.004,-0.004 c -6.19819,-13.01168 -17.25939,-19.74504 -28.51373,-19.74504 z m 0,3.44797 c 9.89583,0 19.68543,5.77653 25.40385,17.78525 a 1.7246108,1.7246108 0 0 0 0.022,0.0473 l 382.52195,744.78354 a 1.7246108,1.7246108 0 0 0 0.053,0.0996 c 3.5403,5.90027 5.7125,10.60345 5.7125,13.41193 0,13.34177 -11.1324,23.29992 -23.3,23.29992 -10.08623,0 -17.83173,-5.62101 -21.09823,-12.15392 a 1.7246108,1.7246108 0 0 0 -0.01,-0.016 L 820.35094,629.49209 a 1.7246108,1.7246108 0 0 0 -2.96337,-0.17899 L 620.76549,920.07558 a 1.7246108,1.7246108 0 0 0 -0.0508,0.0791 c -5.08699,8.47829 -12.84055,12.56941 -20.56624,12.56941 -7.7257,0 -15.48094,-4.09112 -20.56793,-12.56941 a 1.7246108,1.7246108 0 0 0 -0.0508,-0.0809 L 382.90616,630.50176 a 1.7246108,1.7246108 0 0 0 -2.95999,0.179 L 230.98953,920.25289 a 1.7246108,1.7246108 0 0 0 -0.009,0.0186 c -3.26648,6.53292 -11.09302,12.15396 -19.90772,12.15396 -12.16757,0 -22.10788,-9.86242 -22.10788,-23.29996 0,-1.78743 8.9e-4,-4.14043 0.14353,-6.13272 0.0712,-0.99613 0.18145,-1.90431 0.32083,-2.55474 0.13937,-0.65042 0.43134,-1.0274 0.2212,-0.81724 a 1.7246108,1.7246108 0 0 0 0.31575,-0.43395 L 573.67241,150.8422 c 6.30494,-12.03668 16.43166,-17.84434 26.32751,-17.84434 z m 0.74463,71.3284 a 1.7246108,1.7246108 0 0 0 -1.53488,0.93546 L 406.16228,580.63291 a 1.7246108,1.7246108 0 0 0 0.10635,1.75606 l 193.04748,284.80537 a 1.7246108,1.7246108 0 0 0 2.86037,-0.009 L 794.0319,581.1899 a 1.7246108,1.7246108 0 0 0 0.10298,-1.74761 L 602.27781,205.26343 a 1.7246108,1.7246108 0 0 0 -1.53318,-0.93713 z m -0.004,5.49954 189.86077,370.287 L 600.73619,863.14356 409.69805,581.29985 Z m 26.69568,158.23851 c -22.16926,0 -40.02651,18.63853 -40.02651,41.10043 0,19.39079 13.33425,35.87047 31.23605,40.03157 l -7.48186,101.15452 -85.37019,-12.97464 c 0.0112,-0.3326 0.0996,-0.64433 0.0996,-0.97934 0,-16.98059 -13.81879,-30.97095 -30.76662,-30.97095 -5.72768,0 -11.03406,1.69994 -15.63408,4.47122 l -37.93433,-45.03468 c 5.16458,-5.55236 8.39196,-12.94719 8.39196,-21.07955 0,-16.98027 -13.81711,-30.97093 -30.76495,-30.97093 -16.94782,0 -30.76662,13.99034 -30.76662,30.97093 0,16.98061 13.8188,30.97094 30.76662,30.97094 5.72798,0 11.03391,-1.70136 15.63408,-4.47291 l 37.93442,45.03637 c -5.16459,5.55237 -8.39198,12.94723 -8.39198,21.07956 0,8.83388 3.7902,16.80222 9.76476,22.46921 l -34.98448,55.86491 c -6.47322,-2.91258 -13.6185,-4.56749 -21.1488,-4.56749 -17.34328,0 -32.69713,8.63572 -42.19626,21.80057 l -17.5539,-13.35455 c 2.18348,-4.24752 3.53577,-8.98509 3.53577,-14.06035 0,-16.98058 -13.81881,-30.97097 -30.76664,-30.97097 -16.94784,0 -30.76494,13.99071 -30.76494,30.97097 0,16.98026 13.81676,30.97262 30.76494,30.97262 8.78963,0 16.68359,-3.81005 22.29867,-9.80189 l 17.99632,13.69056 c -3.49907,7.05706 -5.5181,14.97674 -5.5181,23.36414 0,16.98479 8.11293,32.11989 20.61014,41.75726 l -15.88734,22.70054 c -6.13787,-3.78752 -13.27009,-6.09557 -20.9698,-6.09558 -22.32001,0 -40.50099,18.39518 -40.50099,40.79647 0,22.40126 18.18098,40.79648 40.50099,40.79648 22.32001,0 40.49929,-18.39546 40.49929,-40.79648 0,-11.56313 -4.90032,-21.99513 -12.65718,-29.44453 l 16.26049,-23.23073 c 7.2769,3.89485 15.55657,6.12766 24.34854,6.12766 8.35788,0 16.23576,-2.04753 23.24764,-5.5907 l 44.01648,66.20034 c -5.74015,5.64193 -9.33585,13.47695 -9.33585,22.11125 0,16.98027 13.81711,30.97096 30.76494,30.97096 16.94785,0 30.76494,-13.99069 30.76494,-30.97096 0,-16.98023 -13.81709,-30.97092 -30.76494,-30.97092 -5.2323,0 -10.09053,1.45758 -14.41156,3.80087 l -43.66191,-65.66849 c 13.05137,-9.59005 21.58612,-25.07047 21.58612,-42.49344 0,-18.2601 -9.35002,-34.41599 -23.47727,-43.85946 l 34.48814,-55.07465 c 4.20015,2.17878 8.88501,3.52903 13.91684,3.52903 13.62976,0 25.09982,-9.10768 29.12199,-21.48313 l 86.27525,13.11141 -8.4021,113.59727 c -11.82155,0.42802 -22.67363,4.70876 -31.36101,11.66434 l -7.9597,-8.13196 c 4.25208,-5.31899 6.90776,-11.97215 6.90776,-19.26606 0,-16.98058 -13.8188,-30.97095 -30.76662,-30.97095 -16.94785,0 -30.76495,13.99069 -30.76495,30.97095 0,16.98025 13.81677,30.97262 30.76495,30.97262 6.5671,0 12.63118,-2.1407 17.63665,-5.70214 l 7.89723,8.06778 c -8.74126,9.63896 -14.12622,22.40965 -14.12622,36.41812 0,28.38375 21.93641,51.80925 49.65618,53.91462 l 2.53448,76.47674 c -20.22663,2.34455 -36.06185,19.57408 -36.06185,40.48408 0,22.48879 18.24908,40.95687 40.65632,40.95687 22.40726,0 40.65802,-18.4678 40.65802,-40.95687 0,-21.09649 -16.1195,-38.4465 -36.60556,-40.53982 l -2.53109,-76.448 c 21.92441,-1.89579 40.1314,-17.13884 46.57967,-37.57139 l 166.16616,31.74597 c -0.0671,0.95667 -0.28705,1.87059 -0.28705,2.84347 0,22.48903 18.25077,40.9569 40.65801,40.9569 22.40726,0 40.65802,-18.46786 40.65802,-40.95689 0,-22.48902 -18.25102,-40.9552 -40.65802,-40.9552 -18.45932,0 -33.92055,12.60837 -38.85804,29.59818 L 657.11568,734.49138 c 0.37726,-2.57849 0.63826,-5.19381 0.63826,-7.8736 0,-6.28051 -1.12812,-12.29521 -3.10012,-17.91695 l 83.45878,-33.48008 c 10.23496,17.1919 28.85639,28.79443 50.15427,28.79443 32.26373,0 58.51081,-26.54077 58.51081,-58.97682 0,-23.98697 -14.37383,-44.71404 -34.90013,-53.90282 l 10.89266,-29.46479 c 1.63512,0.27353 3.28484,0.51163 4.99467,0.51163 16.94816,0 30.76494,-13.99236 30.76494,-30.97264 0,-16.98025 -13.81711,-30.97093 -30.76494,-30.97093 -16.94784,0 -30.76495,13.99068 -30.76495,30.97093 0,12.21548 7.20576,22.79264 17.52859,27.81847 l -10.79305,29.19968 c -4.93633,-1.371 -10.10718,-2.16468 -15.4686,-2.16468 -15.19892,0 -29.01689,5.93855 -39.43046,15.55976 l -7.05465,-5.58565 c 5.64942,-7.04093 9.17882,-15.86398 9.17882,-25.55414 2e-5,-22.48904 -18.25076,-40.95689 -40.65802,-40.95689 -18.59402,0 -34.15693,12.78897 -38.97287,29.96796 l -51.5929,-7.84152 7.50043,-101.40612 c 0.0681,3.5e-4 0.13097,0.0203 0.19925,0.0203 22.1695,0 40.02819,-18.63998 40.02819,-41.10211 0,-22.46212 -17.85892,-41.10042 -40.02819,-41.10042 z m -6.32353,9.30548 c -4.08408,0.86601 -7.87989,2.55359 -11.21856,4.88827 3.33879,-2.33408 7.13407,-4.02276 11.21856,-4.88827 z m 12.64707,0 c 4.08457,0.86553 7.87957,2.55417 11.21856,4.88827 -3.33889,-2.33466 -7.13439,-4.02228 -11.21856,-4.88827 z m -23.86732,4.88827 c -1.66918,1.16731 -3.2238,2.49759 -4.64345,3.96635 -2.83956,2.9378 -5.13857,6.43404 -6.72709,10.31521 1.5882,-3.88157 3.88775,-7.37761 6.72709,-10.31521 1.42013,-1.46927 2.97354,-2.79882 4.64345,-3.96635 z m 35.08756,0 c 5.00893,3.50181 8.98943,8.45858 11.37223,14.28156 -2.38296,-5.82159 -6.36414,-10.77943 -11.37223,-14.28156 z m -17.54378,3.09675 c 12.50703,0 22.7377,10.37775 22.7377,23.80993 0,13.43216 -10.23101,23.81159 -22.7377,23.81159 -12.5067,0 -22.736,-10.37912 -22.736,-23.81159 0,-13.4325 10.22898,-23.80993 22.736,-23.80993 z m -212.7053,36.55659 c -8.62845,1.78985 -15.44423,8.67226 -17.21621,17.37832 1.77051,-8.71158 8.58256,-15.59076 17.21621,-17.37832 z m 8.90864,0 c 7.19554,1.48981 13.12375,6.51756 15.9245,13.19415 -2.80236,-6.67299 -8.73409,-11.7025 -15.9245,-13.19415 z m 177.77647,5.39147 c 4.16498,6.37503 10.51516,11.01572 17.88318,13.07427 v 0.002 c -7.36956,-2.0577 -13.71809,-6.70003 -17.88318,-13.07594 z m 52.04206,0 c -4.51282,6.90765 -11.52826,11.92704 -19.69833,13.6585 8.16853,-1.73221 15.18552,-6.75167 19.69833,-13.6585 z m -234.27285,2.79957 c 7.52404,0 13.47445,5.94856 13.47445,13.68045 0,7.73189 -5.95041,13.68045 -13.47445,13.68045 -7.52401,0 -13.47612,-5.94905 -13.47612,-13.68045 0,-7.7314 5.95211,-13.68045 13.47612,-13.68045 z m -21.67053,18.1736 c 1.77198,8.70608 8.58776,15.58847 17.21621,17.37833 -8.63365,-1.78755 -15.4457,-8.66673 -17.21621,-17.37833 z m 42.04935,4.1842 c -0.88852,2.11811 -2.16456,4.00681 -3.62357,5.73253 l -0.004,-0.004 c 1.45891,-1.72538 2.73801,-3.6124 3.62696,-5.72918 z m -10.38612,11.12401 0.004,0.004 c -1.74385,0.90092 -3.56944,1.6584 -5.54176,2.06677 1.97061,-0.40882 3.79545,-1.16903 5.53838,-2.07014 z m 394.13235,45.75397 c -7.19038,1.49166 -13.12212,6.52117 -15.92449,13.19413 2.80076,-6.67658 8.72896,-11.70434 15.92449,-13.19413 z m 8.90867,0 c 7.19555,1.48979 13.12372,6.51755 15.92448,13.19413 -2.80236,-6.67296 -8.73407,-11.70247 -15.92448,-13.19413 z m -341.5466,5.18715 c -1.97059,0.4088 -3.79542,1.16903 -5.53835,2.07013 l -0.002,-0.004 c 1.74347,-0.90058 3.56823,-1.65849 5.54004,-2.06676 z m 8.90868,0 c 8.63364,1.78756 15.44568,8.66673 17.2162,17.37831 -1.772,-8.70605 -8.58777,-15.58847 -17.2162,-17.37831 z m 328.18359,3.0039 c 7.52403,0 13.47444,5.94853 13.47444,13.68042 0,7.7319 -5.95092,13.68213 -13.47444,13.68213 -7.52354,0 -13.47444,-5.95023 -13.47444,-13.68213 0,-7.73189 5.95041,-13.68043 13.47444,-13.68042 z m -349.39317,4.45769 0.004,0.004 c -1.4589,1.72536 -2.73802,3.61242 -3.62697,5.72917 0.88855,-2.11811 2.16458,-4.00683 3.62359,-5.73256 z m 16.75525,0.72945 c 7.524,0 13.47611,5.94904 13.47611,13.68044 0,7.7314 -5.95259,13.68211 -13.47611,13.68211 -7.52353,0 -13.47445,-5.95023 -13.47445,-13.68211 0,-7.73188 5.95042,-13.68044 13.47445,-13.68044 z m 310.96907,12.98646 c 1.34869,6.62762 5.67415,12.10941 11.44313,15.18152 l -0.002,0.004 c -5.77072,-3.0703 -10.09377,-8.55274 -11.44145,-15.18492 z m 43.3377,0 c -1.77029,8.71199 -8.58297,15.59221 -17.21621,17.38 8.62912,-1.7897 15.44445,-8.67334 17.21621,-17.38 z m -375.97563,5.18715 c 0.81301,3.99529 2.74456,7.55573 5.3695,10.46718 l -0.002,0.004 c -2.62526,-2.91133 -4.55534,-6.47385 -5.36782,-10.47223 z m 218.95116,2.80464 c -1.70282,1.16198 -3.28955,2.48564 -4.73801,3.94777 1.44891,-1.46267 3.03446,-2.78556 4.73801,-3.94777 z m 35.78663,0 c 1.70355,1.16221 3.28908,2.4851 4.73799,3.94777 -1.44844,-1.46213 -3.03517,-2.78579 -4.73799,-3.94777 z m -212.53645,0.88647 h 0.002 c -2.7149,6.91351 -8.71412,12.16358 -16.07983,13.68888 7.36023,-1.52695 13.36142,-6.77994 16.07814,-13.68888 z m 194.64313,2.23561 c 12.97894,0 23.3675,10.4311 23.3675,23.66639 0,13.23526 -10.38825,23.66469 -23.3675,23.66469 -12.97925,0 -23.36751,-10.42943 -23.36751,-23.66469 0,-13.23529 10.38859,-23.66639 23.36751,-23.66639 z m -224.52667,9.73603 c 1.55456,0.73905 3.17295,1.35939 4.89842,1.71724 -1.72612,-0.35743 -3.34532,-0.97707 -4.90012,-1.71552 z m 195.0315,1.36097 c -0.38574,0.91966 -0.58677,1.92502 -0.88817,2.88569 h -0.002 c 0.30132,-0.96088 0.50417,-1.96588 0.88986,-2.88569 z m 58.99034,0 c 1.62044,3.86458 2.51761,8.11254 2.5176,12.56939 0,4.45626 -0.89756,8.70367 -2.5176,12.56769 -0.81043,1.93303 -1.80195,3.76984 -2.95323,5.4894 1.1512,-1.71909 2.14267,-3.55709 2.95323,-5.4894 1.62112,-3.86461 2.5176,-8.1114 2.5176,-12.56769 10e-6,-4.4563 -0.89652,-8.70461 -2.5176,-12.56939 z m -120.7009,2.38758 50.79594,7.71824 c -0.0505,0.83081 -0.24822,1.62068 -0.24822,2.46357 0,22.48901 18.25102,40.95519 40.65801,40.95519 9.63036,0 18.37392,-3.55228 25.34984,-9.2278 l 7.22183,5.71904 c -8.18909,10.15447 -13.11817,23.07403 -13.11817,37.10875 0,7.93696 1.59072,15.51199 4.43745,22.4405 l -82.99659,33.29436 c -8.10024,-14.92287 -22.98438,-25.59061 -40.43514,-27.80496 z m 59.19249,10.18181 c 0,4.45629 0.89648,8.70308 2.51759,12.5677 0.81056,1.9323 1.80202,3.77031 2.95323,5.4894 -1.15129,-1.71956 -2.14279,-3.55637 -2.95323,-5.4894 -1.62004,-3.86402 -2.51759,-8.11143 -2.51759,-12.5677 z M 326.55792,582.6777 c -7.1904,1.49167 -13.12213,6.52117 -15.92448,13.19414 2.80075,-6.67659 8.72894,-11.70433 15.92448,-13.19414 z m 8.90866,0 c 8.63365,1.78756 15.44569,8.66675 17.21622,17.37832 -1.772,-8.70606 -8.58778,-15.58847 -17.21622,-17.37832 z m 348.29395,5.86426 c 3.4533,5.15633 8.34282,9.25534 14.08569,11.70992 -5.74414,-2.45416 -10.63255,-6.5528 -14.08569,-11.70992 z m 53.08388,0 c -0.52421,0.78289 -1.19134,1.44613 -1.77971,2.1782 l -0.002,-0.002 c 0.58831,-0.73192 1.25722,-1.39383 1.78141,-2.17652 z m -405.83215,2.32678 c 7.524,0 13.47613,5.94903 13.47613,13.68045 0,7.73139 -5.95261,13.68212 -13.47613,13.68212 -7.52353,0 -13.47444,-5.95024 -13.47444,-13.68212 0,-7.73189 5.95042,-13.68045 13.47444,-13.68045 z m 397.77451,5.90647 0.002,0.002 c -1.88316,1.35224 -3.87538,2.55453 -6.02973,3.47498 2.15375,-0.92054 4.14522,-2.12452 6.02805,-3.47668 z m 31.60244,6.53122 c -1.66023,1.1324 -3.21979,2.39752 -4.72956,3.71813 l -0.002,-0.002 c 1.5103,-1.32112 3.07037,-2.58371 4.73126,-3.71645 z m 55.75513,0 c 3.9794,2.71398 7.54979,5.99198 10.59888,9.72083 -3.04872,-3.72818 -6.62025,-7.00711 -10.59888,-9.72083 z m -27.87757,0.0473 c 22.83364,0 41.22031,18.50479 41.22031,41.68464 0,23.17986 -18.38687,41.68633 -41.22031,41.68633 -22.83345,0 -41.22028,-18.50648 -41.22028,-41.68633 0,-23.17985 18.38665,-41.68464 41.22028,-41.68464 z m -478.92336,5.68866 c 1.77174,8.70666 8.58709,15.59033 17.2162,17.37998 -8.63324,-1.78776 -15.44591,-8.66801 -17.2162,-17.37998 z m 43.33939,0 c -0.30432,1.49732 -0.76829,2.93489 -1.35419,4.30742 h -0.002 c 0.58696,-1.37328 1.05103,-2.80956 1.35588,-4.30742 z m -6.2408,11.45327 0.004,0.002 c -2.97646,2.93468 -6.75109,5.04955 -10.9788,5.92503 4.2243,-0.87639 7.99933,-2.99276 10.97542,-5.92673 z m 84.50228,0.29042 c 1.21984,0.38316 2.40837,0.83621 3.57968,1.32212 l -0.002,0.002 c -1.17097,-0.48584 -2.35852,-0.94064 -3.57797,-1.32381 z m 313.47653,0.26679 c -1.5354,2.85203 -2.80567,5.87089 -3.77722,9.02178 0.97155,-3.15152 2.24163,-6.16927 3.77722,-9.02178 z m 87.69192,0 c 1.53561,2.85251 2.80567,5.87026 3.77724,9.02178 -0.97155,-3.15089 -2.24181,-6.16975 -3.77724,-9.02178 z m -414.11944,6.40117 c 19.3522,0 34.91534,15.65421 34.91534,35.32057 0,19.66638 -15.56314,35.32059 -34.91534,35.32059 -19.35218,0 -34.91365,-15.65401 -34.91365,-35.32059 0,-19.66658 15.56147,-35.32057 34.91365,-35.32057 z m 30.79871,4.2365 c 3.94202,3.97886 7.13257,8.71647 9.33756,13.97594 -2.20514,-5.25935 -5.39543,-9.99695 -9.33756,-13.97594 z m 85.69608,3.29938 c -7.1904,1.49166 -13.12214,6.52116 -15.92449,13.19415 2.80076,-6.67658 8.72895,-11.70434 15.92449,-13.19415 z m 8.90866,0 c 8.63365,1.78755 15.44568,8.66675 17.21621,17.37831 -1.77199,-8.70605 -8.58778,-15.58846 -17.21621,-17.37831 z m -4.45432,8.19104 c 7.524,0 13.47611,5.94906 13.47611,13.68043 0,7.73141 -5.9526,13.68213 -13.47611,13.68213 -7.52354,0 -13.47445,-5.95024 -13.47445,-13.68213 0,-7.73188 5.95042,-13.68043 13.47445,-13.68043 z m -21.66886,18.17359 c 1.77174,8.70669 8.58709,15.59033 17.21621,17.38001 -8.63325,-1.78776 -15.44592,-8.66801 -17.21621,-17.38001 z m 43.33939,0 c -0.64641,3.18057 -2.01255,6.07628 -3.84646,8.60982 l -0.002,-0.004 c 1.83422,-2.53337 3.20126,-5.42783 3.84816,-8.6064 z m -10.18519,14.49263 0.002,0.002 c -2.14489,1.32686 -4.4897,2.35908 -7.03273,2.88569 2.5414,-0.52723 4.88677,-1.5601 7.03102,-2.88738 z m 199.36258,1.20222 c 1.01638,1.24304 2.09189,2.4359 3.22001,3.57463 -1.12842,-1.13896 -2.20338,-2.33128 -3.22001,-3.57463 z m 76.95288,0 c -1.01663,1.24335 -2.09159,2.43567 -3.22002,3.57463 1.12813,-1.13873 2.20363,-2.33159 3.22002,-3.57463 z m -368.61366,2.83334 c -2.20499,5.25948 -5.39554,9.9971 -9.33756,13.97596 3.94213,-3.97898 7.13242,-8.71657 9.33756,-13.97596 z m 132.52734,3.30446 c -5.05902,1.58919 -9.62666,4.18812 -13.74799,7.35353 4.12134,-3.16538 8.68868,-5.76445 13.74799,-7.35353 z m 26.79015,0 c 7.05294,2.21527 13.36414,6.1356 18.46065,11.27936 2.03904,2.05794 3.88293,4.31069 5.50292,6.73047 -1.61982,-2.41944 -3.46419,-4.67271 -5.50292,-6.73047 -5.09682,-5.14437 -11.40751,-9.06377 -18.46065,-11.27936 z m 139.10414,0.68555 c 2.46259,2.05162 5.12386,3.87015 7.94958,5.42017 -2.8262,-1.55009 -5.48664,-3.36831 -7.94958,-5.42017 z m 63.43117,0 c -2.46293,2.05186 -5.12338,3.87008 -7.94958,5.42017 2.82573,-1.55002 5.48699,-3.36855 7.94958,-5.42017 z m -215.93039,5.91492 c 20.17845,0 36.41137,16.32996 36.41137,36.83013 0,20.50015 -16.23313,36.8318 -36.41137,36.8318 -20.17823,0 -36.41138,-16.33165 -36.41138,-36.8318 0,-20.50017 16.23292,-36.83013 36.41138,-36.83013 z M 337.14666,732.3115 c -5.71465,2.44255 -10.58002,6.52152 -14.01644,11.65251 3.43627,-5.1318 8.30053,-9.21034 14.01644,-11.65251 z m 12.39548,6.11583 c 12.89215,10e-6 23.20879,10.35833 23.20879,23.50597 0,13.14764 -10.31664,23.50598 -23.20879,23.50598 -12.89214,0 -23.21049,-10.35865 -23.21049,-23.50598 0,-13.14734 10.31835,-23.50596 23.21049,-23.50597 z m 22.85588,1.18703 c 1.29531,1.3512 2.50783,2.78662 3.55435,4.34965 -1.04649,-1.56269 -2.2609,-2.99692 -3.55603,-4.34797 z m 3.55435,4.35133 c 2.29022,3.4209 3.94632,7.3087 4.79542,11.49211 -0.84948,-4.18263 -2.50476,-8.07125 -4.79542,-11.49211 z m 473.36476,3.78906 c -5.74287,2.45458 -10.6324,6.5536 -14.08569,11.70993 3.45314,-5.15714 8.34155,-9.25576 14.08569,-11.70993 z m 24.9125,0 c 5.74414,2.45417 10.63254,6.55279 14.08569,11.70993 -3.4533,-5.15633 -8.34282,-9.25535 -14.08569,-11.70993 z m -307.5363,4.28548 c 3.23952,4.83859 7.37701,9.01413 12.1709,12.28402 5.9928,4.08769 13.01217,6.75912 20.58314,7.53589 -7.57135,-0.77669 -14.59038,-3.44844 -20.58314,-7.53589 -4.79421,-3.26997 -8.93141,-7.44502 -12.1709,-12.28402 z m 74.71729,0 c -3.2395,4.839 -7.3767,9.01405 -12.17091,12.28402 -5.99277,4.08745 -13.0118,6.7592 -20.58313,7.53589 7.57096,-0.77677 14.59032,-3.4482 20.58313,-7.53589 4.79389,-3.26989 8.93139,-7.44543 12.17091,-12.28402 z m 220.36276,1.81853 c 12.97925,0 23.36751,10.42943 23.36751,23.6647 0,13.23527 -10.38858,23.66638 -23.36751,23.66638 -12.97894,0 -23.36752,-10.43111 -23.36752,-23.66638 0,-13.23527 10.38827,-23.6647 23.36752,-23.6647 z m -26.54194,5.6076 c -1.1512,1.71909 -2.14267,3.5571 -2.95323,5.48941 0.81043,-1.93304 1.80195,-3.76984 2.95323,-5.48941 z m 53.08388,0 c 1.15128,1.71957 2.14278,3.55637 2.95323,5.48941 1.62004,3.86402 2.51759,8.11141 2.51759,12.56769 0,4.45684 -0.89715,8.7048 -2.51759,12.56939 1.62109,-3.86477 2.51759,-8.11309 2.51759,-12.56939 0,-4.4563 -0.89647,-8.70309 -2.51759,-12.56769 -0.81056,-1.93231 -1.80203,-3.77032 -2.95323,-5.48941 z m -507.56753,8.94244 c -0.8491,4.18339 -2.5052,8.07121 -4.79542,11.49209 2.29066,-3.42085 3.94594,-7.30946 4.79542,-11.49209 z m 121.48438,7.82631 c -1.83592,0.38087 -3.54657,1.06547 -5.18715,1.87596 l -0.002,-0.002 c 1.64133,-0.81015 3.35151,-1.49384 5.18884,-1.87425 z m 8.90865,0 c 7.19554,1.48982 13.12374,6.51756 15.9245,13.19415 -2.80236,-6.67298 -8.73409,-11.70247 -15.9245,-13.19415 z m 318.61979,1.28835 c 0,4.4563 0.89651,8.70462 2.5176,12.56939 -1.62044,-3.86459 -2.5176,-8.11255 -2.5176,-12.56939 z m -506.63039,2.37913 c 3.43642,5.131 8.30179,9.20995 14.01644,11.65253 -5.71591,-2.44218 -10.58017,-6.52072 -14.01644,-11.65253 z m 52.82215,0 c -3.43596,5.13181 -8.30079,9.21038 -14.01645,11.65253 5.71442,-2.44261 10.58034,-6.52152 14.01645,-11.65253 z m 114.22542,3.49355 0.002,0.004 c -1.57308,1.79656 -2.93196,3.79181 -3.87179,6.02974 0.93952,-2.23971 2.29657,-4.23607 3.87011,-6.03313 z m 16.5087,1.03002 c 7.52403,0 13.47444,5.94856 13.47444,13.68042 0,7.7319 -5.95041,13.68044 -13.47444,13.68044 -7.52401,0 -13.47443,-5.94854 -13.47443,-13.68044 0,-7.73186 5.95042,-13.68042 13.47443,-13.68042 z m 332.45558,15.93799 c 1.44845,1.46213 3.03518,2.7858 4.73799,3.94777 -1.70354,-1.16219 -3.28911,-2.4851 -4.73799,-3.94777 z m 45.26263,0 c -1.44891,1.46267 -3.03445,2.78558 -4.73802,3.94777 1.70284,-1.16197 3.28956,-2.48564 4.73802,-3.94777 z m -398.09703,6.41976 c 2.80237,6.67299 8.73409,11.70249 15.9245,13.19414 -7.19554,-1.4898 -13.12374,-6.51754 -15.9245,-13.19414 z m 40.75765,0 c -2.80076,6.6766 -8.72896,11.70434 -15.9245,13.19414 7.19041,-1.49165 13.12214,-6.52115 15.9245,-13.19414 z m 67.61365,60.9406 c -7.65753,3.27312 -13.79551,9.4723 -17.03723,17.20102 -1.62096,3.8646 -2.51759,8.11148 -2.51759,12.56769 0,-4.45633 0.89771,-8.70364 2.51759,-12.56769 3.24099,-7.73104 9.37772,-13.9284 17.03723,-17.20102 z m 24.9125,0 c 5.74414,2.45416 10.63254,6.55279 14.0857,11.70993 -3.45331,-5.15633 -8.34284,-9.25535 -14.0857,-11.70993 z m -12.45626,6.10402 c 12.97927,0 23.36751,10.42944 23.36751,23.66469 0,13.2353 -10.38855,23.66632 -23.36751,23.66632 -12.97892,0 -23.36581,-10.43075 -23.36581,-23.66632 0,-13.23557 10.38657,-23.66469 23.36581,-23.66469 z m 26.54196,5.60759 c 1.15129,1.71956 2.14278,3.55637 2.95321,5.48941 1.62004,3.86403 2.5176,8.11142 2.5176,12.56769 0,4.45684 -0.89715,8.70484 -2.5176,12.56941 1.6211,-3.86475 2.5176,-8.11311 2.5176,-12.56941 0,-4.4563 -0.89648,-8.70308 -2.5176,-12.56769 -0.81055,-1.93231 -1.80201,-3.77032 -2.95321,-5.48941 z m -56.03543,30.6282 c 2.43128,5.79608 6.49168,10.73125 11.60018,14.21735 -5.10932,-3.48583 -9.16917,-8.41986 -11.60018,-14.21735 z m 52.1248,10.26955 c -1.44891,1.46266 -3.03444,2.78562 -4.73801,3.9478 1.70282,-1.16191 3.28955,-2.48558 4.73801,-3.9478 z"
   inkscape:label="logo"
   transform="matrix(0.16666667,0,0,0.16666667,25,30)" />
	
</g><style
     type="text/css"
     id="style1">
	.st0{fill:#DD0031;}
	.st1{fill:#C3002F;}
	.st2{fill:#FFFFFF;}
</style></svg>
