<svg width="1200" height="1200" version="1.1" viewBox="0 0 1200 1200" xml:space="preserve" xmlns="http://www.w3.org/2000/svg" xmlns:xlink="http://www.w3.org/1999/xlink"><defs><linearGradient id="linearGradient119" x1="567.62" x2="567.62" y1="79.443" y2="1028" gradientTransform="matrix(.86453 0 0 .86453 112.39 49.495)" gradientUnits="userSpaceOnUse"><stop style="stop-color:#69ceff" offset="0"/><stop style="stop-color:#0100b7" offset="1"/></linearGradient></defs><g transform="matrix(6,0,0,6,-150,-180)">
	<polygon class="st0" points="125 230 125 230 125 230 203.9 186.3 218.1 63.2 125 30 31.9 63.2 46.1 186.3" style="fill:#80ffe6"/>
	<polygon class="st1" points="125 230 125 230 203.9 186.3 218.1 63.2 125 30 125 52.2 125 52.1 125 153.4" style="fill:#aef"/><path transform="matrix(.16667 0 0 .16667 25 30)" d="m600 129.55c-11.256 0-22.58 6.7053-29.384 19.693a1.7246 1.7246 0 0 0-7e-3 0.0119l-383.71 748.36 0.31576-0.43224c-0.80599 0.80596-0.96087 1.6208-1.1566 2.5345-0.19578 0.91364-0.30886 1.9416-0.38667 3.0309-0.15561 2.1785-0.15366 4.5918-0.15366 6.3792 0 15.162 11.509 26.75 25.558 26.75 10.244 0 19.094-6.2852 22.983-14.043l0.0101-0.0186 147.62-286.97 194.99 287.17-0.0524-0.0809c5.6379 9.3966 14.567 14.243 23.525 14.243s17.887-4.8462 23.525-14.243l-0.0508 0.0773 194.99-288.35 147.62 288.15c3.8835 7.7668 12.82 14.062 24.183 14.062 14.049 0 26.75-11.492 26.75-26.75 0-4.315-2.574-9.1214-6.1497-15.087l-382.5-744.74-4e-3 -4e-3c-6.1982-13.012-17.259-19.745-28.514-19.745zm0 3.448c9.8958 0 19.685 5.7765 25.404 17.785a1.7246 1.7246 0 0 0 0.022 0.0473l382.52 744.78a1.7246 1.7246 0 0 0 0.053 0.0996c3.5403 5.9003 5.7125 10.603 5.7125 13.412 0 13.342-11.132 23.3-23.3 23.3-10.086 0-17.832-5.621-21.098-12.154a1.7246 1.7246 0 0 0-0.01-0.016l-148.95-290.76a1.7246 1.7246 0 0 0-2.9634-0.17899l-196.62 290.76a1.7246 1.7246 0 0 0-0.0508 0.0791c-5.087 8.4783-12.841 12.569-20.566 12.569-7.7257 0-15.481-4.0911-20.568-12.569a1.7246 1.7246 0 0 0-0.0508-0.0809l-196.62-289.57a1.7246 1.7246 0 0 0-2.96 0.179l-148.96 289.57a1.7246 1.7246 0 0 0-9e-3 0.0186c-3.2665 6.5329-11.093 12.154-19.908 12.154-12.168 0-22.108-9.8624-22.108-23.3 0-1.7874 8.9e-4 -4.1404 0.14353-6.1327 0.0712-0.99613 0.18145-1.9043 0.32083-2.5547 0.13937-0.65042 0.43134-1.0274 0.2212-0.81724a1.7246 1.7246 0 0 0 0.31575-0.43395l383.71-748.34c6.3049-12.037 16.432-17.844 26.328-17.844zm0.74463 71.328a1.7246 1.7246 0 0 0-1.5349 0.93546l-193.05 375.37a1.7246 1.7246 0 0 0 0.10635 1.7561l193.05 284.81a1.7246 1.7246 0 0 0 2.8604-9e-3l191.86-286a1.7246 1.7246 0 0 0 0.10298-1.7476l-191.86-374.18a1.7246 1.7246 0 0 0-1.5332-0.93713zm-4e-3 5.4995 189.86 370.29-189.87 283.03-191.04-281.84zm26.696 158.24c-22.169 0-40.027 18.639-40.027 41.1 0 19.391 13.334 35.87 31.236 40.032l-7.4819 101.15-85.37-12.975c0.0112-0.3326 0.0996-0.64433 0.0996-0.97934 0-16.981-13.819-30.971-30.767-30.971-5.7277 0-11.034 1.6999-15.634 4.4712l-37.934-45.035c5.1646-5.5524 8.392-12.947 8.392-21.08 0-16.98-13.817-30.971-30.765-30.971-16.948 0-30.767 13.99-30.767 30.971 0 16.981 13.819 30.971 30.767 30.971 5.728 0 11.034-1.7014 15.634-4.4729l37.934 45.036c-5.1646 5.5524-8.392 12.947-8.392 21.08 0 8.8339 3.7902 16.802 9.7648 22.469l-34.984 55.865c-6.4732-2.9126-13.618-4.5675-21.149-4.5675-17.343 0-32.697 8.6357-42.196 21.801l-17.554-13.355c2.1835-4.2475 3.5358-8.9851 3.5358-14.06 0-16.981-13.819-30.971-30.767-30.971-16.948 0-30.765 13.991-30.765 30.971s13.817 30.973 30.765 30.973c8.7896 0 16.684-3.81 22.299-9.8019l17.996 13.691c-3.4991 7.0571-5.5181 14.977-5.5181 23.364 0 16.985 8.1129 32.12 20.61 41.757l-15.887 22.701c-6.1379-3.7875-13.27-6.0956-20.97-6.0956-22.32 0-40.501 18.395-40.501 40.796 0 22.401 18.181 40.796 40.501 40.796s40.499-18.395 40.499-40.796c0-11.563-4.9003-21.995-12.657-29.445l16.26-23.231c7.2769 3.8948 15.557 6.1277 24.349 6.1277 8.3579 0 16.236-2.0475 23.248-5.5907l44.016 66.2c-5.7402 5.6419-9.3358 13.477-9.3358 22.111 0 16.98 13.817 30.971 30.765 30.971 16.948 0 30.765-13.991 30.765-30.971 0-16.98-13.817-30.971-30.765-30.971-5.2323 0-10.091 1.4576-14.412 3.8009l-43.662-65.668c13.051-9.59 21.586-25.07 21.586-42.493 0-18.26-9.35-34.416-23.477-43.859l34.488-55.075c4.2002 2.1788 8.885 3.529 13.917 3.529 13.63 0 25.1-9.1077 29.122-21.483l86.275 13.111-8.4021 113.6c-11.822 0.42802-22.674 4.7088-31.361 11.664l-7.9597-8.132c4.2521-5.319 6.9078-11.972 6.9078-19.266 0-16.981-13.819-30.971-30.767-30.971-16.948 0-30.765 13.991-30.765 30.971 0 16.98 13.817 30.973 30.765 30.973 6.5671 0 12.631-2.1407 17.637-5.7021l7.8972 8.0678c-8.7413 9.639-14.126 22.41-14.126 36.418 0 28.384 21.936 51.809 49.656 53.915l2.5345 76.477c-20.227 2.3446-36.062 19.574-36.062 40.484 0 22.489 18.249 40.957 40.656 40.957 22.407 0 40.658-18.468 40.658-40.957 0-21.096-16.12-38.446-36.606-40.54l-2.5311-76.448c21.924-1.8958 40.131-17.139 46.58-37.571l166.17 31.746c-0.0671 0.95667-0.28705 1.8706-0.28705 2.8435 0 22.489 18.251 40.957 40.658 40.957 22.407 0 40.658-18.468 40.658-40.957 0-22.489-18.251-40.955-40.658-40.955-18.459 0-33.921 12.608-38.858 29.598l-165.8-31.675c0.37726-2.5785 0.63826-5.1938 0.63826-7.8736 0-6.2805-1.1281-12.295-3.1001-17.917l83.459-33.48c10.235 17.192 28.856 28.794 50.154 28.794 32.264 0 58.511-26.541 58.511-58.977 0-23.987-14.374-44.714-34.9-53.903l10.893-29.465c1.6351 0.27353 3.2848 0.51163 4.9947 0.51163 16.948 0 30.765-13.992 30.765-30.973 0-16.98-13.817-30.971-30.765-30.971-16.948 0-30.765 13.991-30.765 30.971 0 12.215 7.2058 22.793 17.529 27.818l-10.793 29.2c-4.9363-1.371-10.107-2.1647-15.469-2.1647-15.199 0-29.017 5.9386-39.43 15.56l-7.0546-5.5856c5.6494-7.0409 9.1788-15.864 9.1788-25.554 2e-5 -22.489-18.251-40.957-40.658-40.957-18.594 0-34.157 12.789-38.973 29.968l-51.593-7.8415 7.5004-101.41c0.0681 3.5e-4 0.13097 0.0203 0.19925 0.0203 22.17 0 40.028-18.64 40.028-41.102 0-22.462-17.859-41.1-40.028-41.1zm-6.3235 9.3055c-4.0841 0.86601-7.8799 2.5536-11.219 4.8883 3.3388-2.3341 7.1341-4.0228 11.219-4.8883zm12.647 0c4.0846 0.86553 7.8796 2.5542 11.219 4.8883-3.3389-2.3347-7.1344-4.0223-11.219-4.8883zm-23.867 4.8883c-1.6692 1.1673-3.2238 2.4976-4.6434 3.9664-2.8396 2.9378-5.1386 6.434-6.7271 10.315 1.5882-3.8816 3.8878-7.3776 6.7271-10.315 1.4201-1.4693 2.9735-2.7988 4.6434-3.9664zm35.088 0c5.0089 3.5018 8.9894 8.4586 11.372 14.282-2.383-5.8216-6.3641-10.779-11.372-14.282zm-17.544 3.0968c12.507 0 22.738 10.378 22.738 23.81 0 13.432-10.231 23.812-22.738 23.812-12.507 0-22.736-10.379-22.736-23.812 0-13.432 10.229-23.81 22.736-23.81zm-212.71 36.557c-8.6284 1.7898-15.444 8.6723-17.216 17.378 1.7705-8.7116 8.5826-15.591 17.216-17.378zm8.9086 0c7.1955 1.4898 13.124 6.5176 15.924 13.194-2.8024-6.673-8.7341-11.702-15.924-13.194zm177.78 5.3915c4.165 6.375 10.515 11.016 17.883 13.074v2e-3c-7.3696-2.0577-13.718-6.7-17.883-13.076zm52.042 0c-4.5128 6.9076-11.528 11.927-19.698 13.658 8.1685-1.7322 15.186-6.7517 19.698-13.658zm-234.27 2.7996c7.524 0 13.474 5.9486 13.474 13.68s-5.9504 13.68-13.474 13.68c-7.524 0-13.476-5.949-13.476-13.68s5.9521-13.68 13.476-13.68zm-21.671 18.174c1.772 8.7061 8.5878 15.588 17.216 17.378-8.6336-1.7876-15.446-8.6667-17.216-17.378zm42.049 4.1842c-0.88852 2.1181-2.1646 4.0068-3.6236 5.7325l-4e-3 -4e-3c1.4589-1.7254 2.738-3.6124 3.627-5.7292zm-10.386 11.124 4e-3 4e-3c-1.7438 0.90092-3.5694 1.6584-5.5418 2.0668 1.9706-0.40882 3.7954-1.169 5.5384-2.0701zm394.13 45.754c-7.1904 1.4917-13.122 6.5212-15.924 13.194 2.8008-6.6766 8.729-11.704 15.924-13.194zm8.9087 0c7.1956 1.4898 13.124 6.5176 15.924 13.194-2.8024-6.673-8.7341-11.702-15.924-13.194zm-341.55 5.1872c-1.9706 0.4088-3.7954 1.169-5.5384 2.0701l-2e-3 -4e-3c1.7435-0.90058 3.5682-1.6585 5.54-2.0668zm8.9087 0c8.6336 1.7876 15.446 8.6667 17.216 17.378-1.772-8.706-8.5878-15.588-17.216-17.378zm328.18 3.0039c7.524 0 13.474 5.9485 13.474 13.68 0 7.7319-5.9509 13.682-13.474 13.682-7.5235 0-13.474-5.9502-13.474-13.682 0-7.7319 5.9504-13.68 13.474-13.68zm-349.39 4.4577 4e-3 4e-3c-1.4589 1.7254-2.738 3.6124-3.627 5.7292 0.88855-2.1181 2.1646-4.0068 3.6236-5.7326zm16.755 0.72945c7.524 0 13.476 5.949 13.476 13.68s-5.9526 13.682-13.476 13.682c-7.5235 0-13.474-5.9502-13.474-13.682s5.9504-13.68 13.474-13.68zm310.97 12.986c1.3487 6.6276 5.6742 12.109 11.443 15.182l-2e-3 4e-3c-5.7707-3.0703-10.094-8.5527-11.441-15.185zm43.338 0c-1.7703 8.712-8.583 15.592-17.216 17.38 8.6291-1.7897 15.444-8.6733 17.216-17.38zm-375.98 5.1872c0.81301 3.9953 2.7446 7.5557 5.3695 10.467l-2e-3 4e-3c-2.6253-2.9113-4.5553-6.4738-5.3678-10.472zm218.95 2.8046c-1.7028 1.162-3.2896 2.4856-4.738 3.9478 1.4489-1.4627 3.0345-2.7856 4.738-3.9478zm35.787 0c1.7036 1.1622 3.2891 2.4851 4.738 3.9478-1.4484-1.4621-3.0352-2.7858-4.738-3.9478zm-212.54 0.88647h2e-3c-2.7149 6.9135-8.7141 12.164-16.08 13.689 7.3602-1.527 13.361-6.7799 16.078-13.689zm194.64 2.2356c12.979 0 23.368 10.431 23.368 23.666 0 13.235-10.388 23.665-23.368 23.665s-23.368-10.429-23.368-23.665c0-13.235 10.389-23.666 23.368-23.666zm-224.53 9.736c1.5546 0.73905 3.173 1.3594 4.8984 1.7172-1.7261-0.35743-3.3453-0.97707-4.9001-1.7155zm195.03 1.361c-0.38574 0.91966-0.58677 1.925-0.88817 2.8857h-2e-3c0.30132-0.96088 0.50417-1.9659 0.88986-2.8857zm58.99 0c1.6204 3.8646 2.5176 8.1125 2.5176 12.569 0 4.4563-0.89756 8.7037-2.5176 12.568-0.81043 1.933-1.802 3.7698-2.9532 5.4894 1.1512-1.7191 2.1427-3.5571 2.9532-5.4894 1.6211-3.8646 2.5176-8.1114 2.5176-12.568 1e-5 -4.4563-0.89652-8.7046-2.5176-12.569zm-120.7 2.3876 50.796 7.7182c-0.0505 0.83081-0.24822 1.6207-0.24822 2.4636 0 22.489 18.251 40.955 40.658 40.955 9.6304 0 18.374-3.5523 25.35-9.2278l7.2218 5.719c-8.1891 10.154-13.118 23.074-13.118 37.109 0 7.937 1.5907 15.512 4.4374 22.44l-82.997 33.294c-8.1002-14.923-22.984-25.591-40.435-27.805zm59.192 10.182c0 4.4563 0.89648 8.7031 2.5176 12.568 0.81056 1.9323 1.802 3.7703 2.9532 5.4894-1.1513-1.7196-2.1428-3.5564-2.9532-5.4894-1.62-3.864-2.5176-8.1114-2.5176-12.568zm-351.73 12.195c-7.1904 1.4917-13.122 6.5212-15.924 13.194 2.8008-6.6766 8.7289-11.704 15.924-13.194zm8.9087 0c8.6336 1.7876 15.446 8.6668 17.216 17.378-1.772-8.7061-8.5878-15.588-17.216-17.378zm348.29 5.8643c3.4533 5.1563 8.3428 9.2553 14.086 11.71-5.7441-2.4542-10.633-6.5528-14.086-11.71zm53.084 0c-0.52421 0.78289-1.1913 1.4461-1.7797 2.1782l-2e-3 -2e-3c0.58831-0.73192 1.2572-1.3938 1.7814-2.1765zm-405.83 2.3268c7.524 0 13.476 5.949 13.476 13.68 0 7.7314-5.9526 13.682-13.476 13.682-7.5235 0-13.474-5.9502-13.474-13.682 0-7.7319 5.9504-13.68 13.474-13.68zm397.77 5.9065 2e-3 2e-3c-1.8832 1.3522-3.8754 2.5545-6.0297 3.475 2.1538-0.92054 4.1452-2.1245 6.028-3.4767zm31.602 6.5312c-1.6602 1.1324-3.2198 2.3975-4.7296 3.7181l-2e-3 -2e-3c1.5103-1.3211 3.0704-2.5837 4.7313-3.7164zm55.755 0c3.9794 2.714 7.5498 5.992 10.599 9.7208-3.0487-3.7282-6.6202-7.0071-10.599-9.7208zm-27.878 0.0473c22.834 0 41.22 18.505 41.22 41.685 0 23.18-18.387 41.686-41.22 41.686-22.833 0-41.22-18.506-41.22-41.686s18.387-41.685 41.22-41.685zm-478.92 5.6887c1.7717 8.7067 8.5871 15.59 17.216 17.38-8.6332-1.7878-15.446-8.668-17.216-17.38zm43.339 0c-0.30432 1.4973-0.76829 2.9349-1.3542 4.3074h-2e-3c0.58696-1.3733 1.051-2.8096 1.3559-4.3074zm-6.2408 11.453 4e-3 2e-3c-2.9765 2.9347-6.7511 5.0496-10.979 5.925 4.2243-0.87639 7.9993-2.9928 10.975-5.9267zm84.502 0.29042c1.2198 0.38316 2.4084 0.83621 3.5797 1.3221l-2e-3 2e-3c-1.171-0.48584-2.3585-0.94064-3.578-1.3238zm313.48 0.26679c-1.5354 2.852-2.8057 5.8709-3.7772 9.0218 0.97155-3.1515 2.2416-6.1693 3.7772-9.0218zm87.692 0c1.5356 2.8525 2.8057 5.8703 3.7772 9.0218-0.97155-3.1509-2.2418-6.1698-3.7772-9.0218zm-414.12 6.4012c19.352 0 34.915 15.654 34.915 35.321 0 19.666-15.563 35.321-34.915 35.321-19.352 0-34.914-15.654-34.914-35.321s15.561-35.321 34.914-35.321zm30.799 4.2365c3.942 3.9789 7.1326 8.7165 9.3376 13.976-2.2051-5.2594-5.3954-9.997-9.3376-13.976zm85.696 3.2994c-7.1904 1.4917-13.122 6.5212-15.924 13.194 2.8008-6.6766 8.729-11.704 15.924-13.194zm8.9087 0c8.6336 1.7876 15.446 8.6668 17.216 17.378-1.772-8.706-8.5878-15.588-17.216-17.378zm-4.4543 8.191c7.524 0 13.476 5.9491 13.476 13.68 0 7.7314-5.9526 13.682-13.476 13.682-7.5235 0-13.474-5.9502-13.474-13.682 0-7.7319 5.9504-13.68 13.474-13.68zm-21.669 18.174c1.7717 8.7067 8.5871 15.59 17.216 17.38-8.6332-1.7878-15.446-8.668-17.216-17.38zm43.339 0c-0.64641 3.1806-2.0126 6.0763-3.8465 8.6098l-2e-3 -4e-3c1.8342-2.5334 3.2013-5.4278 3.8482-8.6064zm-10.185 14.493 2e-3 2e-3c-2.1449 1.3269-4.4897 2.3591-7.0327 2.8857 2.5414-0.52723 4.8868-1.5601 7.031-2.8874zm199.36 1.2022c1.0164 1.243 2.0919 2.4359 3.22 3.5746-1.1284-1.139-2.2034-2.3313-3.22-3.5746zm76.953 0c-1.0166 1.2434-2.0916 2.4357-3.22 3.5746 1.1281-1.1387 2.2036-2.3316 3.22-3.5746zm-368.61 2.8333c-2.205 5.2595-5.3955 9.9971-9.3376 13.976 3.9421-3.979 7.1324-8.7166 9.3376-13.976zm132.53 3.3045c-5.059 1.5892-9.6267 4.1881-13.748 7.3535 4.1213-3.1654 8.6887-5.7644 13.748-7.3535zm26.79 0c7.0529 2.2153 13.364 6.1356 18.461 11.279 2.039 2.0579 3.8829 4.3107 5.5029 6.7305-1.6198-2.4194-3.4642-4.6727-5.5029-6.7305-5.0968-5.1444-11.408-9.0638-18.461-11.279zm139.1 0.68555c2.4626 2.0516 5.1239 3.8702 7.9496 5.4202-2.8262-1.5501-5.4866-3.3683-7.9496-5.4202zm63.431 0c-2.4629 2.0519-5.1234 3.8701-7.9496 5.4202 2.8257-1.55 5.487-3.3686 7.9496-5.4202zm-215.93 5.9149c20.178 0 36.411 16.33 36.411 36.83 0 20.5-16.233 36.832-36.411 36.832-20.178 0-36.411-16.332-36.411-36.832 0-20.5 16.233-36.83 36.411-36.83zm-266.91 42.524c-5.7146 2.4426-10.58 6.5215-14.016 11.653 3.4363-5.1318 8.3005-9.2103 14.016-11.653zm12.395 6.1158c12.892 1e-5 23.209 10.358 23.209 23.506s-10.317 23.506-23.209 23.506c-12.892 0-23.21-10.359-23.21-23.506 0-13.147 10.318-23.506 23.21-23.506zm22.856 1.187c1.2953 1.3512 2.5078 2.7866 3.5544 4.3496-1.0465-1.5627-2.2609-2.9969-3.556-4.348zm3.5544 4.3513c2.2902 3.4209 3.9463 7.3087 4.7954 11.492-0.84948-4.1826-2.5048-8.0712-4.7954-11.492zm473.36 3.7891c-5.7429 2.4546-10.632 6.5536-14.086 11.71 3.4531-5.1571 8.3416-9.2558 14.086-11.71zm24.912 0c5.7441 2.4542 10.633 6.5528 14.086 11.71-3.4533-5.1563-8.3428-9.2554-14.086-11.71zm-307.54 4.2855c3.2395 4.8386 7.377 9.0141 12.171 12.284 5.9928 4.0877 13.012 6.7591 20.583 7.5359-7.5714-0.77669-14.59-3.4484-20.583-7.5359-4.7942-3.27-8.9314-7.445-12.171-12.284zm74.717 0c-3.2395 4.839-7.3767 9.014-12.171 12.284-5.9928 4.0874-13.012 6.7592-20.583 7.5359 7.571-0.77677 14.59-3.4482 20.583-7.5359 4.7939-3.2699 8.9314-7.4454 12.171-12.284zm220.36 1.8185c12.979 0 23.368 10.429 23.368 23.665s-10.389 23.666-23.368 23.666c-12.979 0-23.368-10.431-23.368-23.666s10.388-23.665 23.368-23.665zm-26.542 5.6076c-1.1512 1.7191-2.1427 3.5571-2.9532 5.4894 0.81043-1.933 1.802-3.7698 2.9532-5.4894zm53.084 0c1.1513 1.7196 2.1428 3.5564 2.9532 5.4894 1.62 3.864 2.5176 8.1114 2.5176 12.568 0 4.4568-0.89715 8.7048-2.5176 12.569 1.6211-3.8648 2.5176-8.1131 2.5176-12.569s-0.89647-8.7031-2.5176-12.568c-0.81056-1.9323-1.802-3.7703-2.9532-5.4894zm-507.57 8.9424c-0.8491 4.1834-2.5052 8.0712-4.7954 11.492 2.2907-3.4208 3.9459-7.3095 4.7954-11.492zm121.48 7.8263c-1.8359 0.38087-3.5466 1.0655-5.1872 1.876l-2e-3 -2e-3c1.6413-0.81015 3.3515-1.4938 5.1888-1.8742zm8.9086 0c7.1955 1.4898 13.124 6.5176 15.924 13.194-2.8024-6.673-8.7341-11.702-15.924-13.194zm318.62 1.2884c0 4.4563 0.89651 8.7046 2.5176 12.569-1.6204-3.8646-2.5176-8.1126-2.5176-12.569zm-506.63 2.3791c3.4364 5.131 8.3018 9.21 14.016 11.653-5.7159-2.4422-10.58-6.5207-14.016-11.653zm52.822 0c-3.436 5.1318-8.3008 9.2104-14.016 11.653 5.7144-2.4426 10.58-6.5215 14.016-11.653zm114.23 3.4936 2e-3 4e-3c-1.5731 1.7966-2.932 3.7918-3.8718 6.0297 0.93952-2.2397 2.2966-4.2361 3.8701-6.0331zm16.509 1.03c7.524 0 13.474 5.9486 13.474 13.68 0 7.7319-5.9504 13.68-13.474 13.68-7.524 0-13.474-5.9485-13.474-13.68 0-7.7319 5.9504-13.68 13.474-13.68zm332.46 15.938c1.4484 1.4621 3.0352 2.7858 4.738 3.9478-1.7035-1.1622-3.2891-2.4851-4.738-3.9478zm45.263 0c-1.4489 1.4627-3.0344 2.7856-4.738 3.9478 1.7028-1.162 3.2896-2.4856 4.738-3.9478zm-398.1 6.4198c2.8024 6.673 8.7341 11.702 15.924 13.194-7.1955-1.4898-13.124-6.5175-15.924-13.194zm40.758 0c-2.8008 6.6766-8.729 11.704-15.924 13.194 7.1904-1.4916 13.122-6.5212 15.924-13.194zm67.614 60.941c-7.6575 3.2731-13.796 9.4723-17.037 17.201-1.621 3.8646-2.5176 8.1115-2.5176 12.568 0-4.4563 0.89771-8.7036 2.5176-12.568 3.241-7.731 9.3777-13.928 17.037-17.201zm24.912 0c5.7441 2.4542 10.633 6.5528 14.086 11.71-3.4533-5.1563-8.3428-9.2554-14.086-11.71zm-12.456 6.104c12.979 0 23.368 10.429 23.368 23.665 0 13.235-10.389 23.666-23.368 23.666-12.979 0-23.366-10.431-23.366-23.666s10.387-23.665 23.366-23.665zm26.542 5.6076c1.1513 1.7196 2.1428 3.5564 2.9532 5.4894 1.62 3.864 2.5176 8.1114 2.5176 12.568 0 4.4568-0.89715 8.7048-2.5176 12.569 1.6211-3.8648 2.5176-8.1131 2.5176-12.569s-0.89648-8.7031-2.5176-12.568c-0.81055-1.9323-1.802-3.7703-2.9532-5.4894zm-56.035 30.628c2.4313 5.7961 6.4917 10.731 11.6 14.217-5.1093-3.4858-9.1692-8.4199-11.6-14.217zm52.125 10.27c-1.4489 1.4627-3.0344 2.7856-4.738 3.9478 1.7028-1.1619 3.2896-2.4856 4.738-3.9478z" style="-inkscape-stroke:none;color:#000000;fill:url(#linearGradient119);stroke-linecap:square;stroke-linejoin:round;stroke-width:.86452"/>
	
</g><style type="text/css">
	.st0{fill:#DD0031;}
	.st1{fill:#C3002F;}
	.st2{fill:#FFFFFF;}
</style></svg>
